<mxfile host="Electron" modified="2023-12-11T16:07:31.098Z" agent="Mozilla/5.0 (Windows NT 10.0; Win64; x64) AppleWebKit/537.36 (KHTML, like Gecko) draw.io/22.1.2 Chrome/114.0.5735.289 Electron/25.9.4 Safari/537.36" etag="LhDG8f59XDuXG8NSGYKX" version="22.1.2" type="device">
  <diagram name="Страница — 1" id="DtaE4OcLTWZRd8Mwezjy">
    <mxGraphModel dx="1276" dy="614" grid="1" gridSize="10" guides="1" tooltips="1" connect="1" arrows="1" fold="1" page="1" pageScale="1" pageWidth="827" pageHeight="1169" math="0" shadow="0">
      <root>
        <mxCell id="0" />
        <mxCell id="1" parent="0" />
        <mxCell id="JxNhOSDzyM_yh36oO4WM-1" style="edgeStyle=orthogonalEdgeStyle;rounded=0;orthogonalLoop=1;jettySize=auto;html=1;endArrow=none;endFill=0;" edge="1" parent="1" source="JxNhOSDzyM_yh36oO4WM-3" target="JxNhOSDzyM_yh36oO4WM-9">
          <mxGeometry relative="1" as="geometry" />
        </mxCell>
        <mxCell id="JxNhOSDzyM_yh36oO4WM-2" value="протокол&lt;br&gt;UEP" style="edgeLabel;html=1;align=center;verticalAlign=middle;resizable=0;points=[];" vertex="1" connectable="0" parent="JxNhOSDzyM_yh36oO4WM-1">
          <mxGeometry x="0.0877" relative="1" as="geometry">
            <mxPoint as="offset" />
          </mxGeometry>
        </mxCell>
        <mxCell id="JxNhOSDzyM_yh36oO4WM-3" value="" style="shape=cube;whiteSpace=wrap;html=1;boundedLbl=1;backgroundOutline=1;darkOpacity=0.05;darkOpacity2=0.1;flipH=1;" vertex="1" parent="1">
          <mxGeometry x="40" y="230" width="360" height="250" as="geometry" />
        </mxCell>
        <mxCell id="JxNhOSDzyM_yh36oO4WM-4" value="&amp;lt;&amp;lt;устройство&amp;gt;&amp;gt;&lt;br&gt;ПК" style="text;html=1;align=center;verticalAlign=middle;resizable=0;points=[];autosize=1;strokeColor=none;fillColor=none;" vertex="1" parent="1">
          <mxGeometry x="40" y="250" width="110" height="40" as="geometry" />
        </mxCell>
        <mxCell id="JxNhOSDzyM_yh36oO4WM-5" value="" style="shape=cube;whiteSpace=wrap;html=1;boundedLbl=1;backgroundOutline=1;darkOpacity=0.05;darkOpacity2=0.1;flipH=1;" vertex="1" parent="1">
          <mxGeometry x="62" y="300" width="280" height="180" as="geometry" />
        </mxCell>
        <mxCell id="JxNhOSDzyM_yh36oO4WM-6" value="&amp;lt;&amp;lt;среда выполнения&amp;gt;&amp;gt;&lt;br&gt;ОС Windows" style="text;html=1;align=center;verticalAlign=middle;resizable=0;points=[];autosize=1;strokeColor=none;fillColor=none;" vertex="1" parent="1">
          <mxGeometry x="57" y="320" width="160" height="40" as="geometry" />
        </mxCell>
        <mxCell id="JxNhOSDzyM_yh36oO4WM-7" value="&amp;lt;&amp;lt;компонент&amp;gt;&amp;gt;&lt;br style=&quot;border-color: var(--border-color);&quot;&gt;Unreal Engine Project" style="html=1;dropTarget=0;whiteSpace=wrap;" vertex="1" parent="1">
          <mxGeometry x="99" y="370" width="180" height="90" as="geometry" />
        </mxCell>
        <mxCell id="JxNhOSDzyM_yh36oO4WM-8" value="" style="shape=module;jettyWidth=8;jettyHeight=4;" vertex="1" parent="JxNhOSDzyM_yh36oO4WM-7">
          <mxGeometry x="1" width="20" height="20" relative="1" as="geometry">
            <mxPoint x="-27" y="7" as="offset" />
          </mxGeometry>
        </mxCell>
        <mxCell id="JxNhOSDzyM_yh36oO4WM-9" value="" style="shape=cube;whiteSpace=wrap;html=1;boundedLbl=1;backgroundOutline=1;darkOpacity=0.05;darkOpacity2=0.1;flipH=1;" vertex="1" parent="1">
          <mxGeometry x="470" y="230" width="360" height="250" as="geometry" />
        </mxCell>
        <mxCell id="JxNhOSDzyM_yh36oO4WM-10" value="&amp;lt;&amp;lt;устройство&amp;gt;&amp;gt;&lt;br&gt;Движок игры" style="text;html=1;align=center;verticalAlign=middle;resizable=0;points=[];autosize=1;strokeColor=none;fillColor=none;" vertex="1" parent="1">
          <mxGeometry x="480" y="250" width="110" height="40" as="geometry" />
        </mxCell>
        <mxCell id="JxNhOSDzyM_yh36oO4WM-11" value="" style="shape=cube;whiteSpace=wrap;html=1;boundedLbl=1;backgroundOutline=1;darkOpacity=0.05;darkOpacity2=0.1;flipH=1;" vertex="1" parent="1">
          <mxGeometry x="502" y="300" width="280" height="180" as="geometry" />
        </mxCell>
        <mxCell id="JxNhOSDzyM_yh36oO4WM-12" value="&amp;lt;&amp;lt;среда выполнения&amp;gt;&amp;gt;&lt;br&gt;Unreal Engine Editor" style="text;html=1;align=center;verticalAlign=middle;resizable=0;points=[];autosize=1;strokeColor=none;fillColor=none;" vertex="1" parent="1">
          <mxGeometry x="501" y="320" width="160" height="40" as="geometry" />
        </mxCell>
        <mxCell id="JxNhOSDzyM_yh36oO4WM-13" value="&amp;lt;&amp;lt;компонент&amp;gt;&amp;gt;&lt;br style=&quot;border-color: var(--border-color);&quot;&gt;Project" style="html=1;dropTarget=0;whiteSpace=wrap;" vertex="1" parent="1">
          <mxGeometry x="545" y="370" width="180" height="90" as="geometry" />
        </mxCell>
        <mxCell id="JxNhOSDzyM_yh36oO4WM-14" value="" style="shape=module;jettyWidth=8;jettyHeight=4;" vertex="1" parent="JxNhOSDzyM_yh36oO4WM-13">
          <mxGeometry x="1" width="20" height="20" relative="1" as="geometry">
            <mxPoint x="-27" y="7" as="offset" />
          </mxGeometry>
        </mxCell>
        <mxCell id="JxNhOSDzyM_yh36oO4WM-15" value="" style="shape=cube;whiteSpace=wrap;html=1;boundedLbl=1;backgroundOutline=1;darkOpacity=0.05;darkOpacity2=0.1;flipH=1;" vertex="1" parent="1">
          <mxGeometry x="467" y="548" width="360" height="250" as="geometry" />
        </mxCell>
        <mxCell id="JxNhOSDzyM_yh36oO4WM-16" value="&amp;lt;&amp;lt;устройство&amp;gt;&amp;gt;&lt;br&gt;QuickMarket" style="text;html=1;align=center;verticalAlign=middle;resizable=0;points=[];autosize=1;strokeColor=none;fillColor=none;" vertex="1" parent="1">
          <mxGeometry x="467" y="567" width="110" height="40" as="geometry" />
        </mxCell>
        <mxCell id="JxNhOSDzyM_yh36oO4WM-17" value="" style="shape=cube;whiteSpace=wrap;html=1;boundedLbl=1;backgroundOutline=1;darkOpacity=0.05;darkOpacity2=0.1;flipH=1;" vertex="1" parent="1">
          <mxGeometry x="497" y="617" width="280" height="180" as="geometry" />
        </mxCell>
        <mxCell id="JxNhOSDzyM_yh36oO4WM-18" value="&amp;lt;&amp;lt;среда выполнения&amp;gt;&amp;gt;&lt;br&gt;Unreal Engine Marketplace" style="text;html=1;align=center;verticalAlign=middle;resizable=0;points=[];autosize=1;strokeColor=none;fillColor=none;" vertex="1" parent="1">
          <mxGeometry x="539" y="642" width="170" height="40" as="geometry" />
        </mxCell>
        <mxCell id="JxNhOSDzyM_yh36oO4WM-19" style="edgeStyle=orthogonalEdgeStyle;rounded=0;orthogonalLoop=1;jettySize=auto;html=1;entryX=0;entryY=0;entryDx=170;entryDy=0;entryPerimeter=0;endArrow=none;endFill=0;" edge="1" parent="1" source="JxNhOSDzyM_yh36oO4WM-11" target="JxNhOSDzyM_yh36oO4WM-15">
          <mxGeometry relative="1" as="geometry">
            <Array as="points">
              <mxPoint x="580" y="520" />
              <mxPoint x="657" y="520" />
            </Array>
          </mxGeometry>
        </mxCell>
        <mxCell id="JxNhOSDzyM_yh36oO4WM-20" value="протокол&lt;br&gt;TCP/IP" style="edgeLabel;html=1;align=center;verticalAlign=middle;resizable=0;points=[];" vertex="1" connectable="0" parent="1">
          <mxGeometry x="540.9977777777779" y="479.9999999999999" as="geometry">
            <mxPoint x="80" y="20" as="offset" />
          </mxGeometry>
        </mxCell>
      </root>
    </mxGraphModel>
  </diagram>
</mxfile>
